<?xml version="1.0" standalone="no"?>
<!DOCTYPE svg PUBLIC "-//W3C//DTD SVG 20010904//EN" "http://www.w3.org/TR/2001/REC-SVG-20010904/DTD/svg10.dtd">
<svg version="1.0" xmlns="http://www.w3.org/2000/svg" width="387.000000pt" height="163.000000pt"
  viewBox="0 0 387.000000 163.000000" preserveAspectRatio="xMidYMid meet">

  <g transform="translate(0.000000,163.000000) scale(0.100000,-0.100000)" fill="#499cfc" stroke="none">
    <path d="M0 815 l0 -815 1935 0 1935 0 0 815 0 815 -1935 0 -1935 0 0 -815z
m392 644 c64 -33 68 -50 38 -149 -11 -36 -23 -87 -26 -114 l-7 -48 42 30 c108
78 232 36 298 -100 47 -96 58 -157 58 -313 -1 -229 -50 -380 -160 -492 -50
-50 -72 -65 -120 -78 -70 -21 -159 -15 -220 15 -97 47 -180 171 -211 315 -39
184 -9 590 66 887 11 44 15 48 54 57 49 12 157 6 188 -10z m2502 -210 c45 -12
128 -86 146 -129 7 -17 15 -30 19 -30 3 1 15 15 26 33 11 18 42 47 69 65 85
57 191 41 260 -39 20 -24 46 -68 58 -98 22 -53 23 -70 23 -303 0 -187 3 -250
13 -260 27 -27 58 19 77 116 6 28 7 29 57 23 96 -12 135 -65 123 -166 -19
-159 -140 -274 -290 -275 -118 0 -211 66 -255 180 -20 53 -22 71 -17 184 3 69
11 168 18 220 16 118 9 153 -29 148 -17 -2 -34 -15 -48 -36 -51 -75 -76 -301
-54 -478 7 -54 13 -108 14 -119 3 -50 -152 -75 -224 -37 -20 11 -46 38 -60 63
-23 40 -25 55 -25 159 0 63 8 177 18 254 20 159 14 206 -28 206 -56 0 -93
-105 -102 -288 -5 -108 8 -331 23 -385 9 -28 -67 -57 -151 -57 -76 0 -121 19
-149 62 -36 56 -46 265 -21 472 19 158 57 403 65 416 3 5 36 17 73 26 50 13
76 14 105 7 36 -9 41 -8 69 22 47 49 119 66 197 44z m-793 -56 c25 -11 61 -34
81 -52 217 -190 203 -702 -24 -882 -168 -132 -388 -68 -491 143 -45 92 -61
169 -60 283 2 148 68 315 137 347 19 8 24 18 24 45 0 51 20 90 58 114 66 40
188 41 275 2z m-766 -2 c144 -68 235 -246 235 -462 0 -235 -87 -424 -232 -505
-47 -26 -63 -29 -138 -29 -73 0 -92 4 -136 27 -134 70 -223 246 -224 440 0
154 58 320 126 360 27 16 32 25 36 69 9 90 66 128 193 129 68 0 89 -4 140 -29z" />
    <path d="M423 895 c-39 -27 -56 -104 -51 -234 3 -91 8 -123 23 -148 34 -58 72
-37 99 57 35 117 33 283 -5 321 -23 23 -38 24 -66 4z" />
    <path d="M1953 901 c9 -25 7 -33 -20 -67 -40 -51 -53 -93 -53 -169 0 -71 14
-120 43 -152 68 -76 147 41 147 217 0 107 -19 164 -61 185 -15 8 -37 15 -48
15 -17 0 -18 -3 -8 -29z" />
    <path d="M1180 926 c0 -3 4 -16 9 -29 8 -20 5 -29 -15 -48 -13 -12 -33 -47
-45 -78 -38 -101 -13 -246 46 -273 56 -25 106 40 126 163 23 141 -24 268 -98
269 -13 0 -23 -2 -23 -4z" />
  </g>
</svg>